<svg width="211" height="41" viewBox="0 0 211 41" fill="none" xmlns="http://www.w3.org/2000/svg">
<g clip-path="url(#clip0_727_1401)">
<rect y="2" width="38" height="36" fill="black"/>
<path d="M47 27.0525V0.947513H52.5271V11.2776H63.435V0.947513H68.9621V27.0525H63.435V15.9765H52.5271V27.0525H47ZM74.8102 27.0525V0.947513H80.3373V11.2776H91.2453V0.947513H96.7725V27.0525H91.2453V15.9765H80.3373V27.0525H74.8102ZM100.79 18.96V14.2611H112.503V18.96H100.79ZM125.677 27.5C123.968 27.5 122.48 27.326 121.211 26.9779C119.942 26.605 118.88 26.0829 118.026 25.4116C117.172 24.7155 116.513 23.895 116.05 22.9503C115.61 21.9807 115.342 20.924 115.244 19.7804H120.772C120.894 20.2776 121.064 20.7376 121.284 21.1602C121.529 21.558 121.845 21.8937 122.236 22.1671C122.626 22.4406 123.102 22.6519 123.664 22.8011C124.224 22.9254 124.896 22.9876 125.677 22.9876C126.482 22.9876 127.189 22.9254 127.8 22.8011C128.409 22.6519 128.922 22.453 129.337 22.2044C129.752 21.9309 130.056 21.6202 130.252 21.2721C130.471 20.8992 130.582 20.4765 130.582 20.0042C130.582 19.4075 130.447 18.9227 130.179 18.5497C129.935 18.1519 129.544 17.8039 129.008 17.5055C128.495 17.2072 127.836 16.9461 127.031 16.7224C126.226 16.4738 125.274 16.2252 124.176 15.9765C122.858 15.6782 121.687 15.3301 120.661 14.9323C119.637 14.5097 118.783 13.9876 118.099 13.366C117.416 12.7445 116.891 11.9986 116.525 11.1285C116.159 10.2583 115.977 9.20164 115.977 7.95855C115.977 6.81491 116.196 5.78314 116.636 4.86325C117.099 3.94336 117.745 3.16022 118.575 2.51381C119.429 1.8674 120.455 1.37016 121.65 1.0221C122.846 0.674033 124.188 0.5 125.677 0.5C127.263 0.5 128.642 0.674033 129.813 1.0221C130.984 1.37016 131.96 1.8674 132.741 2.51381C133.546 3.13536 134.168 3.90607 134.607 4.82596C135.048 5.72099 135.327 6.72789 135.45 7.84667H129.886C129.813 7.39916 129.678 7.00137 129.483 6.65331C129.288 6.30524 129.02 6.01933 128.678 5.79557C128.336 5.54695 127.921 5.36049 127.434 5.23618C126.946 5.08701 126.359 5.01242 125.677 5.01242C124.945 5.01242 124.31 5.08701 123.773 5.23618C123.261 5.38535 122.834 5.58425 122.492 5.83286C122.175 6.05662 121.93 6.34253 121.76 6.6906C121.589 7.0138 121.503 7.38673 121.503 7.80938C121.503 8.33148 121.626 8.77899 121.869 9.15192C122.114 9.52489 122.48 9.84809 122.968 10.1216C123.456 10.3951 124.054 10.6437 124.761 10.8674C125.493 11.0663 126.335 11.2652 127.287 11.4641C128.678 11.7625 129.923 12.123 131.021 12.5456C132.143 12.9434 133.071 13.4531 133.802 14.0746C134.559 14.6962 135.133 15.4544 135.523 16.3495C135.914 17.2445 136.108 18.326 136.108 19.5939C136.108 20.7873 135.865 21.8688 135.376 22.8384C134.913 23.808 134.23 24.6409 133.326 25.337C132.448 26.0332 131.363 26.5677 130.069 26.9406C128.775 27.3135 127.312 27.5 125.677 27.5ZM151.671 27.5C150.06 27.5 148.523 27.2514 147.059 26.7541C145.595 26.2569 144.302 25.4738 143.179 24.4047C142.081 23.3108 141.203 21.9309 140.544 20.2652C139.909 18.5746 139.592 16.5484 139.592 14.1865V13.4406C139.592 11.1782 139.909 9.22651 140.544 7.58562C141.203 5.94474 142.081 4.6022 143.179 3.55801C144.302 2.51381 145.595 1.74309 147.059 1.24586C148.523 0.748618 150.06 0.5 151.671 0.5C153.282 0.5 154.819 0.748618 156.283 1.24586C157.747 1.74309 159.028 2.51381 160.127 3.55801C161.25 4.6022 162.128 5.94474 162.762 7.58562C163.421 9.22651 163.751 11.1782 163.751 13.4406V14.1865C163.751 16.5484 163.421 18.5746 162.762 20.2652C162.128 21.9309 161.25 23.3108 160.127 24.4047C159.028 25.4738 157.747 26.2569 156.283 26.7541C154.819 27.2514 153.282 27.5 151.671 27.5ZM151.671 22.7265C152.501 22.7265 153.294 22.5898 154.051 22.3163C154.807 22.018 155.478 21.5456 156.064 20.8992C156.649 20.2279 157.113 19.3453 157.454 18.2514C157.82 17.1575 158.004 15.8025 158.004 14.1865V13.4406C158.004 11.8992 157.82 10.6064 157.454 9.56218C157.113 8.51794 156.649 7.68507 156.064 7.06353C155.478 6.41712 154.807 5.95717 154.051 5.68369C153.294 5.41021 152.501 5.27347 151.671 5.27347C150.841 5.27347 150.048 5.41021 149.292 5.68369C148.535 5.95717 147.865 6.41712 147.278 7.06353C146.693 7.68507 146.217 8.51794 145.851 9.56218C145.51 10.6064 145.339 11.8992 145.339 13.4406V14.1865C145.339 15.8025 145.51 17.1575 145.851 18.2514C146.217 19.3453 146.693 20.2279 147.278 20.8992C147.865 21.5456 148.535 22.018 149.292 22.3163C150.048 22.5898 150.841 22.7265 151.671 22.7265ZM168.5 27.0525V0.947513H186.069V5.38535H174.027V12.2473H184.971V16.4986H174.027V27.0525H168.5ZM197.236 27.0525V5.6464H189.037V0.947513H211V5.6464H202.8V27.0525H197.236Z" fill="white"/>
<path d="M47 39.0541V32.2432H49.5257C49.9501 32.2432 50.3137 32.2887 50.6169 32.3795C50.92 32.4702 51.1692 32.5967 51.3645 32.7589C51.5665 32.9146 51.7147 33.106 51.8091 33.333C51.9033 33.5535 51.9505 33.7968 51.9505 34.0627C51.9505 34.2378 51.9235 34.4032 51.8696 34.5589C51.8158 34.7081 51.7416 34.8443 51.6474 34.9676C51.5532 35.0843 51.442 35.1881 51.314 35.2789C51.186 35.3697 51.048 35.4443 50.8997 35.5027C51.3241 35.5935 51.6542 35.7751 51.8898 36.0476C52.1323 36.32 52.2536 36.68 52.2536 37.1276C52.2536 37.4065 52.2064 37.6627 52.1122 37.8962C52.0178 38.1297 51.8696 38.3341 51.6676 38.5092C51.4655 38.6778 51.2028 38.8108 50.8795 38.9081C50.5631 39.0054 50.1791 39.0541 49.7278 39.0541H47ZM47.9497 38.2562H49.7278C50.0309 38.2562 50.2835 38.2302 50.4856 38.1784C50.6876 38.12 50.8492 38.0422 50.9705 37.9449C51.0917 37.841 51.1758 37.7179 51.2231 37.5751C51.2769 37.4324 51.3038 37.2735 51.3038 37.0984C51.3038 36.9232 51.2769 36.7644 51.2231 36.6216C51.1758 36.4725 51.0917 36.3492 50.9705 36.2519C50.8492 36.1481 50.6843 36.0702 50.4754 36.0184C50.2734 35.96 50.0208 35.9308 49.7177 35.9308H47.9497V38.2562ZM47.9497 35.1719H49.5257C49.8086 35.1719 50.0443 35.1459 50.233 35.0941C50.4216 35.0422 50.5731 34.9676 50.6876 34.8703C50.802 34.773 50.8829 34.6594 50.93 34.5297C50.9772 34.4 51.0007 34.2573 51.0007 34.1016C51.0007 33.9459 50.9772 33.8032 50.93 33.6735C50.8829 33.5373 50.802 33.4238 50.6876 33.333C50.5731 33.2422 50.4216 33.1708 50.233 33.1189C50.0443 33.0671 49.8086 33.0411 49.5257 33.0411H47.9497V35.1719ZM53.8692 39.0541V32.2432H54.8189V39.0541H53.8692ZM56.9452 39.0541V32.2432H57.9353L60.2994 36.573L62.6636 32.2432H63.6133V39.0541H62.6636V33.8973L60.6328 37.5946H59.9256L57.8949 33.8973V39.0541H56.9452ZM69.1835 39.0541V34.6562H67.3549V33.8973H71.9013V34.6562H70.0726V39.0541H69.1835ZM75.0379 39.1513C74.6945 39.1513 74.3678 39.0995 74.058 38.9957C73.7481 38.8919 73.4753 38.733 73.2396 38.5189C73.0039 38.2983 72.8153 38.0227 72.6739 37.6919C72.5324 37.3611 72.4617 36.9719 72.4617 36.5243V36.3297C72.4617 35.9016 72.529 35.5319 72.6638 35.2205C72.7985 34.9027 72.977 34.64 73.1992 34.4324C73.4282 34.2184 73.6909 34.0595 73.9873 33.9557C74.2904 33.8519 74.6069 33.8 74.937 33.8C75.7249 33.8 76.3345 34.0075 76.7656 34.4227C77.1966 34.8379 77.4122 35.4249 77.4122 36.1838V36.7286H73.3508C73.3508 37.0271 73.4013 37.2832 73.5023 37.4973C73.6033 37.7048 73.7347 37.8735 73.8963 38.0032C74.058 38.1329 74.2364 38.227 74.4318 38.2854C74.6338 38.3438 74.8359 38.373 75.0379 38.373C75.4421 38.373 75.7518 38.3081 75.9675 38.1784C76.1897 38.0487 76.348 37.8702 76.4423 37.6432H77.3112C77.2572 37.8897 77.1596 38.1071 77.0181 38.2951C76.8834 38.4832 76.715 38.6422 76.513 38.7719C76.3176 38.8952 76.092 38.9892 75.8361 39.0541C75.5869 39.119 75.3208 39.1513 75.0379 39.1513ZM73.3508 36.0281H76.5736C76.5669 35.7622 76.5197 35.5384 76.4322 35.3568C76.3514 35.1687 76.2402 35.0194 76.0988 34.9092C75.9573 34.7924 75.789 34.7081 75.5937 34.6562C75.405 34.6044 75.203 34.5784 74.9874 34.5784C74.7787 34.5784 74.5766 34.6076 74.3812 34.6659C74.1859 34.7178 74.0108 34.8054 73.8559 34.9286C73.7077 35.0454 73.5865 35.1946 73.4922 35.3762C73.3978 35.5579 73.3508 35.7751 73.3508 36.0281ZM77.9228 39.0541L79.9333 36.4368L78.0238 33.8973H79.0543L80.4688 35.7751L81.8832 33.8973H82.8733L80.9638 36.3881L82.9744 39.0541H81.9236L80.4284 37.04L78.9331 39.0541H77.9228ZM84.0332 39.0541V33.8973H84.9223V36.0476H87.6905V33.8973H88.5796V39.0541H87.6905V36.8065H84.9223V39.0541H84.0332ZM92.4223 39.1513C92.0788 39.1513 91.7522 39.0995 91.4423 38.9957C91.1324 38.8854 90.8597 38.7232 90.624 38.5092C90.3883 38.2886 90.1996 38.013 90.0582 37.6822C89.9167 37.3514 89.846 36.9654 89.846 36.5243V36.3297C89.846 35.9081 89.9167 35.5416 90.0582 35.2303C90.1996 34.9124 90.3883 34.6497 90.624 34.4422C90.8597 34.2281 91.1324 34.0692 91.4423 33.9654C91.7522 33.8552 92.0788 33.8 92.4223 33.8C92.7658 33.8 93.0924 33.8552 93.4023 33.9654C93.7122 34.0692 93.9849 34.2281 94.2207 34.4422C94.4564 34.6497 94.645 34.9124 94.7865 35.2303C94.9279 35.5416 94.9986 35.9081 94.9986 36.3297V36.5243C94.9986 36.9654 94.9279 37.3514 94.7865 37.6822C94.645 38.013 94.4564 38.2886 94.2207 38.5092C93.9849 38.7232 93.7122 38.8854 93.4023 38.9957C93.0924 39.0995 92.7658 39.1513 92.4223 39.1513ZM92.4223 38.373C92.6244 38.373 92.8265 38.3406 93.0285 38.2757C93.2306 38.2044 93.4091 38.0973 93.564 37.9546C93.7189 37.8054 93.8435 37.6141 93.9378 37.3805C94.0388 37.147 94.0893 36.8617 94.0893 36.5243V36.3297C94.0893 36.0184 94.0388 35.7525 93.9378 35.5319C93.8435 35.3113 93.7189 35.1298 93.564 34.987C93.4091 34.8443 93.2306 34.7406 93.0285 34.6757C92.8265 34.6108 92.6244 34.5784 92.4223 34.5784C92.2203 34.5784 92.0182 34.6108 91.8162 34.6757C91.614 34.7406 91.4356 34.8443 91.2807 34.987C91.1258 35.1298 90.9978 35.3113 90.8968 35.5319C90.8025 35.7525 90.7553 36.0184 90.7553 36.3297V36.5243C90.7553 36.8617 90.8025 37.147 90.8968 37.3805C90.9978 37.6141 91.1258 37.8054 91.2807 37.9546C91.4356 38.0973 91.614 38.2044 91.8162 38.2757C92.0182 38.3406 92.2203 38.373 92.4223 38.373ZM95.9062 39.1513C95.8793 39.1513 95.8524 39.1513 95.8255 39.1513C95.8052 39.1513 95.7816 39.1481 95.7547 39.1416C95.7278 39.1416 95.7009 39.1384 95.6739 39.1319C95.6536 39.1319 95.6301 39.1287 95.6031 39.1222V38.2659C95.6167 38.2725 95.6369 38.2757 95.6638 38.2757C95.6908 38.2757 95.7211 38.2757 95.7547 38.2757C95.9097 38.2757 96.041 38.2302 96.1487 38.1395C96.2566 38.0487 96.3441 37.8897 96.4115 37.6627C96.4788 37.4357 96.5293 37.1276 96.563 36.7384C96.5967 36.3492 96.6135 35.8562 96.6135 35.2595V33.8973H100.453V39.0541H99.564V34.6562H97.5026V35.4541C97.5026 36.1741 97.4689 36.7708 97.4015 37.2443C97.3342 37.7179 97.2332 38.0973 97.0984 38.3827C96.9705 38.6617 96.8054 38.8595 96.6034 38.9762C96.4013 39.093 96.1689 39.1513 95.9062 39.1513ZM104.291 39.1513C103.948 39.1513 103.622 39.0995 103.311 38.9957C103.001 38.8854 102.729 38.7232 102.493 38.5092C102.257 38.2886 102.069 38.013 101.928 37.6822C101.786 37.3514 101.716 36.9654 101.716 36.5243V36.3297C101.716 35.9081 101.786 35.5416 101.928 35.2303C102.069 34.9124 102.257 34.6497 102.493 34.4422C102.729 34.2281 103.001 34.0692 103.311 33.9654C103.622 33.8552 103.948 33.8 104.291 33.8C104.635 33.8 104.961 33.8552 105.272 33.9654C105.581 34.0692 105.854 34.2281 106.089 34.4422C106.325 34.6497 106.514 34.9124 106.655 35.2303C106.797 35.5416 106.867 35.9081 106.867 36.3297V36.5243C106.867 36.9654 106.797 37.3514 106.655 37.6822C106.514 38.013 106.325 38.2886 106.089 38.5092C105.854 38.7232 105.581 38.8854 105.272 38.9957C104.961 39.0995 104.635 39.1513 104.291 39.1513ZM104.291 38.373C104.494 38.373 104.696 38.3406 104.898 38.2757C105.099 38.2044 105.279 38.0973 105.433 37.9546C105.587 37.8054 105.713 37.6141 105.806 37.3805C105.908 37.147 105.959 36.8617 105.959 36.5243V36.3297C105.959 36.0184 105.908 35.7525 105.806 35.5319C105.713 35.3113 105.587 35.1298 105.433 34.987C105.279 34.8443 105.099 34.7406 104.898 34.6757C104.696 34.6108 104.494 34.5784 104.291 34.5784C104.089 34.5784 103.887 34.6108 103.685 34.6757C103.484 34.7406 103.304 34.8443 103.15 34.987C102.996 35.1298 102.867 35.3113 102.765 35.5319C102.672 35.7525 102.624 36.0184 102.624 36.3297V36.5243C102.624 36.8617 102.672 37.147 102.765 37.3805C102.867 37.6141 102.996 37.8054 103.15 37.9546C103.304 38.0973 103.484 38.2044 103.685 38.2757C103.887 38.3406 104.089 38.373 104.291 38.373ZM108.126 39.0541V33.8973H111.764V34.6562H109.016V39.0541H108.126ZM112.774 39.0541V33.8973H113.662V37.7892L116.432 33.8973H117.32V39.0541H116.432V35.1622L113.662 39.0541H112.774ZM118.94 39.0541V33.8973H119.829V37.7892L122.597 33.8973H123.486V39.0541H122.597V35.1622L119.829 39.0541H118.94ZM127.632 39.0541V33.8973H128.522V37.7892L131.29 33.8973H132.179V39.0541H131.29V35.1622L128.522 39.0541H127.632ZM136.324 41V33.8973H137.153V34.8703C137.248 34.6951 137.359 34.5427 137.486 34.413C137.614 34.2768 137.759 34.1632 137.92 34.0724C138.082 33.9817 138.258 33.9135 138.446 33.8681C138.635 33.8227 138.836 33.8 139.051 33.8C139.389 33.8 139.693 33.8552 139.961 33.9654C140.238 34.0692 140.474 34.2281 140.668 34.4422C140.864 34.6497 141.012 34.9124 141.113 35.2303C141.221 35.5416 141.275 35.9081 141.275 36.3297V36.5243C141.275 36.959 141.221 37.3416 141.113 37.6724C141.006 38.0032 140.854 38.2789 140.658 38.4995C140.463 38.7135 140.228 38.8757 139.951 38.9859C139.682 39.0962 139.382 39.1513 139.051 39.1513C138.594 39.1513 138.211 39.0541 137.9 38.8595C137.597 38.6649 137.369 38.4216 137.213 38.1297V41H136.324ZM138.85 38.3924C139.066 38.3924 139.269 38.3535 139.456 38.2757C139.645 38.1913 139.807 38.0714 139.941 37.9157C140.082 37.76 140.191 37.5654 140.265 37.3319C140.345 37.0984 140.385 36.8292 140.385 36.5243V36.3297C140.385 36.0444 140.345 35.7946 140.265 35.5805C140.191 35.36 140.082 35.1751 139.941 35.0259C139.807 34.8703 139.645 34.7535 139.456 34.6757C139.269 34.5978 139.066 34.5589 138.85 34.5589C138.607 34.5589 138.385 34.5978 138.183 34.6757C137.981 34.747 137.809 34.8508 137.668 34.987C137.526 35.1167 137.415 35.2724 137.334 35.4541C137.254 35.6357 137.213 35.8303 137.213 36.0378V36.8162C137.213 37.0497 137.254 37.2638 137.334 37.4584C137.415 37.653 137.526 37.8184 137.668 37.9546C137.809 38.0908 137.981 38.1978 138.183 38.2757C138.385 38.3535 138.607 38.3924 138.85 38.3924ZM144.066 39.1513C143.776 39.1513 143.517 39.1124 143.288 39.0346C143.059 38.9502 142.866 38.8368 142.712 38.6941C142.557 38.5513 142.439 38.3827 142.358 38.1881C142.278 37.9935 142.238 37.7795 142.238 37.5459C142.238 37.293 142.278 37.0757 142.358 36.8941C142.439 36.706 142.554 36.5535 142.702 36.4368C142.857 36.32 143.049 36.2356 143.278 36.1838C143.506 36.1254 143.766 36.0962 144.056 36.0962H145.794V35.7459C145.794 35.5254 145.766 35.3405 145.713 35.1914C145.665 35.0422 145.588 34.9221 145.48 34.8314C145.38 34.7406 145.251 34.6757 145.097 34.6368C144.941 34.5978 144.763 34.5784 144.561 34.5784C144.373 34.5784 144.207 34.5978 144.066 34.6368C143.93 34.6757 143.817 34.7275 143.723 34.7924C143.634 34.8508 143.567 34.9221 143.521 35.0065C143.473 35.0843 143.443 35.1687 143.429 35.2595H142.541C142.554 35.0519 142.611 34.8605 142.712 34.6854C142.82 34.5037 142.961 34.3481 143.136 34.2184C143.319 34.0887 143.534 33.9881 143.783 33.9168C144.032 33.8389 144.309 33.8 144.612 33.8C144.928 33.8 145.214 33.8357 145.47 33.907C145.726 33.9719 145.941 34.079 146.117 34.2281C146.299 34.3773 146.436 34.5686 146.531 34.8022C146.633 35.0357 146.682 35.3178 146.682 35.6486V37.7405C146.682 38.013 146.682 38.253 146.682 38.4605C146.688 38.6617 146.706 38.8595 146.733 39.0541H145.955C145.935 38.9049 145.921 38.7654 145.915 38.6357C145.907 38.4995 145.904 38.347 145.904 38.1784C145.837 38.3146 145.743 38.4411 145.622 38.5578C145.507 38.6746 145.373 38.7784 145.218 38.8692C145.062 38.9535 144.887 39.0217 144.692 39.0735C144.496 39.1254 144.289 39.1513 144.066 39.1513ZM144.258 38.373C144.466 38.373 144.662 38.347 144.844 38.2951C145.032 38.2368 145.197 38.1557 145.339 38.0519C145.48 37.9417 145.592 37.8087 145.672 37.653C145.753 37.4908 145.794 37.3092 145.794 37.1081V36.7578H144.207C143.877 36.7578 143.617 36.8227 143.429 36.9524C143.241 37.0757 143.146 37.2735 143.146 37.5459C143.146 37.786 143.234 37.9838 143.409 38.1395C143.592 38.2951 143.874 38.373 144.258 38.373ZM150.071 39.1513C149.735 39.1513 149.432 39.1156 149.162 39.0443C148.9 38.973 148.675 38.8724 148.485 38.7427C148.296 38.6065 148.149 38.4443 148.041 38.2562C147.932 38.0616 147.869 37.841 147.849 37.5946H148.737C148.758 37.7179 148.801 37.8281 148.869 37.9254C148.943 38.0227 149.038 38.1071 149.152 38.1784C149.266 38.2433 149.402 38.2919 149.556 38.3243C149.71 38.3567 149.883 38.373 150.071 38.373C150.536 38.373 150.873 38.2983 151.082 38.1492C151.297 37.9935 151.405 37.8086 151.405 37.5946C151.405 37.3416 151.317 37.1438 151.142 37.0011C150.968 36.8519 150.665 36.7773 150.233 36.7773H149.314V36.0768H150.173C150.543 36.0768 150.806 36.0086 150.961 35.8724C151.122 35.7362 151.203 35.5448 151.203 35.2984C151.203 35.1038 151.109 34.9352 150.92 34.7924C150.738 34.6497 150.456 34.5784 150.071 34.5784C149.66 34.5784 149.361 34.6433 149.173 34.773C148.99 34.8962 148.879 35.0746 148.839 35.3081H147.949C147.97 35.0941 148.03 34.8962 148.132 34.7146C148.239 34.5265 148.384 34.3643 148.566 34.2281C148.748 34.0919 148.963 33.9881 149.212 33.9168C149.468 33.8389 149.755 33.8 150.071 33.8C150.415 33.8 150.711 33.8389 150.961 33.9168C151.216 33.9881 151.428 34.0919 151.597 34.2281C151.765 34.3578 151.89 34.5135 151.971 34.6951C152.051 34.8768 152.092 35.0778 152.092 35.2984C152.092 35.5448 152.028 35.7622 151.9 35.9503C151.771 36.1319 151.566 36.2746 151.283 36.3784C151.473 36.4238 151.63 36.4886 151.758 36.573C151.887 36.6508 151.991 36.7416 152.072 36.8454C152.153 36.9492 152.211 37.066 152.244 37.1957C152.276 37.319 152.294 37.4519 152.294 37.5946C152.294 37.8086 152.247 38.0098 152.153 38.1978C152.058 38.3859 151.917 38.5513 151.729 38.6941C151.546 38.8303 151.314 38.9405 151.031 39.0249C150.755 39.1092 150.435 39.1513 150.071 39.1513ZM153.561 41V33.8973H154.389V34.8703C154.484 34.6951 154.594 34.5427 154.723 34.413C154.85 34.2768 154.996 34.1632 155.157 34.0724C155.319 33.9817 155.494 33.9135 155.683 33.8681C155.87 33.8227 156.072 33.8 156.289 33.8C156.625 33.8 156.928 33.8552 157.198 33.9654C157.474 34.0692 157.709 34.2281 157.905 34.4422C158.1 34.6497 158.249 34.9124 158.349 35.2303C158.457 35.5416 158.512 35.9081 158.512 36.3297V36.5243C158.512 36.959 158.457 37.3416 158.349 37.6724C158.242 38.0032 158.09 38.2789 157.895 38.4995C157.699 38.7135 157.464 38.8757 157.188 38.9859C156.918 39.0962 156.618 39.1513 156.289 39.1513C155.83 39.1513 155.446 39.0541 155.137 38.8595C154.834 38.6649 154.604 38.4216 154.45 38.1297V41H153.561ZM156.086 38.3924C156.302 38.3924 156.504 38.3535 156.693 38.2757C156.881 38.1913 157.043 38.0714 157.178 37.9157C157.32 37.76 157.426 37.5654 157.501 37.3319C157.581 37.0984 157.622 36.8292 157.622 36.5243V36.3297C157.622 36.0444 157.581 35.7946 157.501 35.5805C157.426 35.36 157.32 35.1751 157.178 35.0259C157.043 34.8703 156.881 34.7535 156.693 34.6757C156.504 34.5978 156.302 34.5589 156.086 34.5589C155.844 34.5589 155.622 34.5978 155.42 34.6757C155.218 34.747 155.046 34.8508 154.905 34.987C154.764 35.1167 154.652 35.2724 154.571 35.4541C154.491 35.6357 154.45 35.8303 154.45 36.0378V36.8162C154.45 37.0497 154.491 37.2638 154.571 37.4584C154.652 37.653 154.764 37.8184 154.905 37.9546C155.046 38.0908 155.218 38.1978 155.42 38.2757C155.622 38.3535 155.844 38.3924 156.086 38.3924ZM161.302 39.1513C161.013 39.1513 160.753 39.1124 160.524 39.0346C160.296 38.9502 160.104 38.8368 159.948 38.6941C159.794 38.5513 159.675 38.3827 159.595 38.1881C159.514 37.9935 159.473 37.7795 159.473 37.5459C159.473 37.293 159.514 37.0757 159.595 36.8941C159.675 36.706 159.791 36.5535 159.938 36.4368C160.094 36.32 160.286 36.2356 160.514 36.1838C160.743 36.1254 161.003 36.0962 161.292 36.0962H163.03V35.7459C163.03 35.5254 163.003 35.3405 162.948 35.1914C162.903 35.0422 162.825 34.9221 162.716 34.8314C162.616 34.7406 162.488 34.6757 162.333 34.6368C162.177 34.5978 161.999 34.5784 161.797 34.5784C161.609 34.5784 161.443 34.5978 161.302 34.6368C161.167 34.6757 161.054 34.7275 160.958 34.7924C160.872 34.8508 160.804 34.9221 160.756 35.0065C160.71 35.0843 160.679 35.1687 160.665 35.2595H159.777C159.791 35.0519 159.848 34.8605 159.948 34.6854C160.056 34.5037 160.197 34.3481 160.372 34.2184C160.555 34.0887 160.771 33.9881 161.019 33.9168C161.269 33.8389 161.545 33.8 161.848 33.8C162.164 33.8 162.45 33.8357 162.706 33.907C162.963 33.9719 163.178 34.079 163.353 34.2281C163.535 34.3773 163.673 34.5686 163.767 34.8022C163.868 35.0357 163.919 35.3178 163.919 35.6486V37.7405C163.919 38.013 163.919 38.253 163.919 38.4605C163.925 38.6617 163.942 38.8595 163.969 39.0541H163.191C163.171 38.9049 163.158 38.7654 163.151 38.6357C163.145 38.4995 163.141 38.347 163.141 38.1784C163.074 38.3146 162.979 38.4411 162.858 38.5578C162.743 38.6746 162.61 38.7784 162.453 38.8692C162.299 38.9535 162.125 39.0217 161.928 39.0735C161.733 39.1254 161.524 39.1513 161.302 39.1513ZM161.494 38.373C161.703 38.373 161.898 38.347 162.08 38.2951C162.269 38.2368 162.433 38.1557 162.575 38.0519C162.716 37.9417 162.828 37.8087 162.909 37.653C162.989 37.4908 163.03 37.3092 163.03 37.1081V36.7578H161.443C161.114 36.7578 160.855 36.8227 160.665 36.9524C160.477 37.0757 160.382 37.2735 160.382 37.5459C160.382 37.786 160.47 37.9838 160.645 38.1395C160.827 38.2951 161.11 38.373 161.494 38.373ZM167.712 39.1513C167.362 39.1513 167.031 39.0865 166.721 38.9568C166.412 38.8271 166.143 38.6389 165.913 38.3924C165.691 38.1395 165.513 37.8313 165.378 37.4681C165.25 37.1049 165.186 36.6929 165.186 36.2324V36.0378C165.186 35.4541 165.23 34.9352 165.317 34.4811C165.405 34.0206 165.553 33.6314 165.761 33.3135C165.977 32.9892 166.256 32.7362 166.6 32.5546C166.951 32.3729 167.388 32.2692 167.914 32.2432C168.13 32.2303 168.327 32.2238 168.509 32.2238C168.692 32.2173 168.863 32.2075 169.024 32.1946C169.187 32.1751 169.335 32.1525 169.47 32.1265C169.605 32.1005 169.726 32.0584 169.833 32V32.827C169.779 32.853 169.702 32.8789 169.6 32.9049C169.507 32.9243 169.385 32.9438 169.237 32.9632C169.095 32.9762 168.928 32.9892 168.732 33.0022C168.536 33.0151 168.314 33.0248 168.065 33.0314C167.741 33.0379 167.456 33.0768 167.207 33.1481C166.964 33.2194 166.755 33.333 166.58 33.4886C166.412 33.6443 166.276 33.8486 166.176 34.1016C166.082 34.3481 166.021 34.653 165.993 35.0162C166.075 34.8411 166.18 34.6854 166.307 34.5492C166.436 34.413 166.58 34.2962 166.741 34.1989C166.903 34.1016 167.082 34.027 167.277 33.9751C167.479 33.9233 167.691 33.8973 167.914 33.8973C168.256 33.8973 168.57 33.9557 168.853 34.0724C169.136 34.1827 169.378 34.3417 169.58 34.5492C169.789 34.7567 169.951 35.013 170.065 35.3178C170.181 35.6162 170.237 35.9535 170.237 36.3297V36.5243C170.237 36.92 170.174 37.28 170.045 37.6043C169.918 37.9286 169.742 38.2076 169.519 38.4411C169.297 38.6681 169.031 38.8432 168.722 38.9665C168.413 39.0898 168.075 39.1513 167.712 39.1513ZM167.712 38.373C167.948 38.373 168.163 38.3341 168.358 38.2562C168.56 38.1719 168.732 38.0519 168.873 37.8962C169.014 37.7405 169.126 37.5492 169.207 37.3222C169.287 37.0886 169.328 36.8227 169.328 36.5243V36.3297C169.328 36.0768 169.287 35.8498 169.207 35.6486C169.126 35.4475 169.014 35.2757 168.873 35.133C168.732 34.9838 168.56 34.8703 168.358 34.7924C168.163 34.7146 167.948 34.6757 167.712 34.6757C167.476 34.6757 167.256 34.7146 167.054 34.7924C166.86 34.8703 166.691 34.9838 166.549 35.133C166.408 35.2757 166.297 35.4475 166.216 35.6486C166.135 35.8498 166.095 36.0768 166.095 36.3297V36.5243C166.095 36.8097 166.135 37.0692 166.216 37.3027C166.304 37.5297 166.423 37.7243 166.57 37.8865C166.718 38.0422 166.89 38.1621 167.085 38.2465C167.281 38.3308 167.489 38.373 167.712 38.373ZM173.721 39.1513C173.377 39.1513 173.05 39.0995 172.741 38.9957C172.43 38.8854 172.158 38.7232 171.922 38.5092C171.686 38.2886 171.498 38.013 171.356 37.6822C171.215 37.3514 171.144 36.9654 171.144 36.5243V36.3297C171.144 35.9081 171.215 35.5416 171.356 35.2303C171.498 34.9124 171.686 34.6497 171.922 34.4422C172.158 34.2281 172.43 34.0692 172.741 33.9654C173.05 33.8552 173.377 33.8 173.721 33.8C174.065 33.8 174.39 33.8552 174.701 33.9654C175.01 34.0692 175.283 34.2281 175.519 34.4422C175.754 34.6497 175.943 34.9124 176.085 35.2303C176.226 35.5416 176.297 35.9081 176.297 36.3297V36.5243C176.297 36.9654 176.226 37.3514 176.085 37.6822C175.943 38.013 175.754 38.2886 175.519 38.5092C175.283 38.7232 175.01 38.8854 174.701 38.9957C174.39 39.0995 174.065 39.1513 173.721 39.1513ZM173.721 38.373C173.923 38.373 174.124 38.3406 174.327 38.2757C174.529 38.2044 174.707 38.0973 174.862 37.9546C175.017 37.8054 175.141 37.6141 175.236 37.3805C175.338 37.147 175.387 36.8617 175.387 36.5243V36.3297C175.387 36.0184 175.338 35.7525 175.236 35.5319C175.141 35.3113 175.017 35.1298 174.862 34.987C174.707 34.8443 174.529 34.7406 174.327 34.6757C174.124 34.6108 173.923 34.5784 173.721 34.5784C173.519 34.5784 173.317 34.6108 173.114 34.6757C172.912 34.7406 172.734 34.8443 172.579 34.987C172.423 35.1298 172.297 35.3113 172.195 35.5319C172.1 35.7525 172.053 36.0184 172.053 36.3297V36.5243C172.053 36.8617 172.1 37.147 172.195 37.3805C172.297 37.6141 172.423 37.8054 172.579 37.9546C172.734 38.0973 172.912 38.2044 173.114 38.2757C173.317 38.3406 173.519 38.373 173.721 38.373ZM178.679 39.0541V34.6562H176.851V33.8973H181.397V34.6562H179.568V39.0541H178.679ZM182.411 39.0541V33.8973H183.299V36.0573H184.006L186.007 33.8973H187.057L184.734 36.3687L187.159 39.0541H186.027L184.006 36.7968H183.299V39.0541H182.411ZM189.648 39.1513C189.358 39.1513 189.098 39.1124 188.87 39.0346C188.641 38.9502 188.449 38.8368 188.294 38.6941C188.139 38.5513 188.022 38.3827 187.941 38.1881C187.86 37.9935 187.819 37.7795 187.819 37.5459C187.819 37.293 187.86 37.0757 187.941 36.8941C188.022 36.706 188.136 36.5535 188.285 36.4368C188.439 36.32 188.631 36.2356 188.86 36.1838C189.088 36.1254 189.348 36.0962 189.638 36.0962H191.375V35.7459C191.375 35.5254 191.348 35.3405 191.295 35.1914C191.248 35.0422 191.169 34.9221 191.063 34.8314C190.961 34.7406 190.834 34.6757 190.678 34.6368C190.523 34.5978 190.345 34.5784 190.143 34.5784C189.954 34.5784 189.79 34.5978 189.648 34.6368C189.513 34.6757 189.398 34.7275 189.305 34.7924C189.217 34.8508 189.149 34.9221 189.102 35.0065C189.056 35.0843 189.025 35.1687 189.012 35.2595H188.122C188.136 35.0519 188.193 34.8605 188.294 34.6854C188.401 34.5037 188.543 34.3481 188.719 34.2184C188.9 34.0887 189.115 33.9881 189.365 33.9168C189.613 33.8389 189.89 33.8 190.194 33.8C190.51 33.8 190.796 33.8357 191.053 33.907C191.308 33.9719 191.523 34.079 191.699 34.2281C191.88 34.3773 192.018 34.5686 192.113 34.8022C192.214 35.0357 192.265 35.3178 192.265 35.6486V37.7405C192.265 38.013 192.265 38.253 192.265 38.4605C192.271 38.6617 192.288 38.8595 192.316 39.0541H191.538C191.517 38.9049 191.503 38.7654 191.497 38.6357C191.49 38.4995 191.487 38.347 191.487 38.1784C191.419 38.3146 191.326 38.4411 191.204 38.5578C191.088 38.6746 190.954 38.7784 190.8 38.8692C190.644 38.9535 190.47 39.0217 190.275 39.0735C190.078 39.1254 189.87 39.1513 189.648 39.1513ZM189.84 38.373C190.049 38.373 190.244 38.347 190.426 38.2951C190.614 38.2368 190.78 38.1557 190.921 38.0519C191.063 37.9417 191.173 37.8087 191.255 37.653C191.336 37.4908 191.375 37.3092 191.375 37.1081V36.7578H189.79C189.459 36.7578 189.2 36.8227 189.012 36.9524C188.822 37.0757 188.729 37.2735 188.729 37.5459C188.729 37.786 188.815 37.9838 188.992 38.1395C189.173 38.2951 189.456 38.373 189.84 38.373ZM196.563 39.0541V32.2432H202.119V39.0541H201.17V33.0411H197.512V39.0541H196.563ZM206.867 39.1513C206.464 39.1513 206.072 39.0865 205.696 38.9568C205.318 38.8205 204.986 38.613 204.696 38.3341C204.406 38.0551 204.173 37.6984 203.999 37.2638C203.823 36.8292 203.736 36.3071 203.736 35.6973V35.5027C203.736 34.9189 203.823 34.4162 203.999 33.9946C204.173 33.573 204.406 33.2259 204.696 32.9535C204.986 32.6746 205.318 32.4702 205.696 32.3405C206.072 32.2108 206.464 32.1459 206.867 32.1459C207.272 32.1459 207.663 32.2108 208.04 32.3405C208.416 32.4702 208.75 32.6746 209.04 32.9535C209.33 33.2259 209.562 33.573 209.737 33.9946C209.911 34.4162 210 34.9189 210 35.5027V35.6973C210 36.3071 209.911 36.8292 209.737 37.2638C209.562 37.6984 209.33 38.0551 209.04 38.3341C208.75 38.613 208.416 38.8205 208.04 38.9568C207.663 39.0865 207.272 39.1513 206.867 39.1513ZM206.867 38.3341C207.143 38.3341 207.41 38.2854 207.666 38.1881C207.921 38.0908 208.148 37.9383 208.343 37.7308C208.538 37.5168 208.693 37.2443 208.808 36.9135C208.929 36.5762 208.989 36.1708 208.989 35.6973V35.5027C208.989 35.0551 208.929 34.6725 208.808 34.3546C208.693 34.0303 208.538 33.7676 208.343 33.5665C208.148 33.359 207.921 33.2065 207.666 33.1092C207.41 33.0119 207.143 32.9632 206.867 32.9632C206.591 32.9632 206.325 33.0119 206.069 33.1092C205.814 33.2065 205.587 33.359 205.393 33.5665C205.198 33.7676 205.04 34.0303 204.918 34.3546C204.803 34.6725 204.746 35.0551 204.746 35.5027V35.6973C204.746 36.1708 204.803 36.5762 204.918 36.9135C205.04 37.2443 205.198 37.5168 205.393 37.7308C205.587 37.9383 205.814 38.0908 206.069 38.1881C206.325 38.2854 206.591 38.3341 206.867 38.3341Z" fill="white"/>
<path d="M4.19611 13.14H5.70811C6.26811 13.14 6.76011 13.064 7.18411 12.912C7.60811 12.752 7.94011 12.52 8.18011 12.216C8.42011 11.912 8.54011 11.548 8.54011 11.124C8.54011 10.644 8.42011 10.248 8.18011 9.936C7.94011 9.624 7.60811 9.392 7.18411 9.24C6.76011 9.08 6.26811 9 5.70811 9H2.91211V17.4H5.88811C6.51211 17.4 7.06011 17.316 7.53211 17.148C8.00411 16.98 8.36811 16.72 8.62411 16.368C8.88811 16.016 9.02011 15.564 9.02011 15.012C9.02011 14.596 8.93211 14.24 8.75611 13.944C8.58811 13.648 8.35611 13.408 8.06011 13.224C7.76411 13.032 7.42811 12.892 7.05211 12.804C6.68411 12.716 6.29611 12.672 5.88811 12.672H4.19611V13.608H5.73211C5.94811 13.608 6.14811 13.632 6.33211 13.68C6.51611 13.72 6.67611 13.792 6.81211 13.896C6.95611 13.992 7.06411 14.116 7.13611 14.268C7.21611 14.412 7.25611 14.588 7.25611 14.796C7.25611 15.084 7.18811 15.32 7.05211 15.504C6.92411 15.688 6.74411 15.824 6.51211 15.912C6.28011 15.992 6.02011 16.032 5.73211 16.032H4.62811V10.368H5.55211C5.92811 10.368 6.22411 10.452 6.44011 10.62C6.66411 10.788 6.77611 11.032 6.77611 11.352C6.77611 11.56 6.72411 11.74 6.62011 11.892C6.52411 12.044 6.38411 12.16 6.20011 12.24C6.01611 12.32 5.80011 12.36 5.55211 12.36H4.19611V13.14Z" fill="white"/>
<path d="M11.0464 13.704H17.2144V12.156H11.0464V13.704ZM16.1224 9V17.4H17.8384V9H16.1224ZM10.4824 9V17.4H12.1984V9H10.4824Z" fill="white"/>
<path d="M20.7505 17.4H24.9865V15.948H20.7505V17.4ZM20.7505 10.452H24.9865V9H20.7505V10.452ZM20.7505 13.656H24.7465V12.228H20.7505V13.656ZM19.6465 9V17.4H21.3025V9H19.6465Z" fill="white"/>
<path d="M7.10047 23.8201L9.03247 29.0401H10.9885L7.10047 20.5801L3.21247 29.0401H5.16847L7.10047 23.8201ZM10.0525 29.4001V30.7201H11.7205V27.9001H2.48047V30.7201H4.14847V29.4001H10.0525Z" fill="white"/>
<path d="M13.1777 21V29.4H14.8937V21H13.1777ZM14.2217 22.452H15.8897C16.3457 22.452 16.7057 22.556 16.9697 22.764C17.2337 22.964 17.3657 23.268 17.3657 23.676C17.3657 24.076 17.2337 24.38 16.9697 24.588C16.7057 24.796 16.3457 24.9 15.8897 24.9H14.2217V26.352H15.8897C16.5537 26.352 17.1177 26.244 17.5817 26.028C18.0537 25.812 18.4137 25.504 18.6617 25.104C18.9097 24.696 19.0337 24.22 19.0337 23.676C19.0337 23.124 18.9097 22.648 18.6617 22.248C18.4137 21.848 18.0537 21.54 17.5817 21.324C17.1177 21.108 16.5537 21 15.8897 21H14.2217V22.452Z" fill="white"/>
<path d="M24.0695 25.488H22.2575L19.5215 29.4H21.5495L24.0695 25.488ZM25.9775 21H24.2615V29.4H25.9775V21ZM24.9335 22.464V21H23.1575C22.5015 21 21.9375 21.112 21.4655 21.336C21.0015 21.56 20.6455 21.872 20.3975 22.272C20.1495 22.672 20.0255 23.14 20.0255 23.676C20.0255 24.204 20.1495 24.672 20.3975 25.08C20.6455 25.48 21.0015 25.792 21.4655 26.016C21.9375 26.24 22.5015 26.352 23.1575 26.352H24.9335V24.984H23.2655C22.9695 24.984 22.7095 24.936 22.4855 24.84C22.2615 24.736 22.0895 24.592 21.9695 24.408C21.8495 24.216 21.7895 23.988 21.7895 23.724C21.7895 23.46 21.8495 23.236 21.9695 23.052C22.0895 22.86 22.2615 22.716 22.4855 22.62C22.7095 22.516 22.9695 22.464 23.2655 22.464H24.9335Z" fill="white"/>
<path d="M35.3747 22.8121L35.4347 20.5801L27.8627 27.5881L27.8027 29.8201L35.3747 22.8121ZM29.4587 21.0001H27.8027V29.8201L29.4587 28.0321V21.0001ZM35.4347 20.5801L33.7787 22.4161V29.4001H35.4347V20.5801ZM29.9747 18.4321C29.9747 18.7441 30.0467 19.0321 30.1907 19.2961C30.3427 19.5601 30.5627 19.7721 30.8507 19.9321C31.1467 20.0921 31.5027 20.1721 31.9187 20.1721C32.3427 20.1721 32.6987 20.0921 32.9867 19.9321C33.2747 19.7721 33.4947 19.5601 33.6467 19.2961C33.7987 19.0321 33.8747 18.7441 33.8747 18.4321H32.7827C32.7827 18.5601 32.7507 18.6841 32.6867 18.8041C32.6307 18.9241 32.5387 19.0241 32.4107 19.1041C32.2827 19.1761 32.1187 19.2121 31.9187 19.2121C31.7267 19.2121 31.5667 19.1761 31.4387 19.1041C31.3107 19.0241 31.2147 18.9241 31.1507 18.8041C31.0867 18.6841 31.0547 18.5601 31.0547 18.4321H29.9747Z" fill="white"/>
<path fill-rule="evenodd" clip-rule="evenodd" d="M37 2H1V38H37V2ZM0 1V39H38V1H0Z" fill="white"/>
</g>
<defs>
<clipPath id="clip0_727_1401">
<rect width="211" height="41" fill="white"/>
</clipPath>
</defs>
</svg>
