<svg width="80" height="80" viewBox="0 0 80 80" fill="none" xmlns="http://www.w3.org/2000/svg">
<path d="M30.6327 37.16C29.8795 36.4068 28.8579 35.9836 27.7927 35.9836C26.7275 35.9836 25.7059 36.4068 24.9527 37.16C24.1995 37.9132 23.7764 38.9348 23.7764 40C23.7764 41.0652 24.1995 42.0868 24.9527 42.84L36.9527 54.84C37.3265 55.2107 37.7698 55.504 38.2571 55.7031C38.7445 55.9021 39.2663 56.003 39.7927 56C40.3403 55.9826 40.8785 55.8529 41.3739 55.619C41.8693 55.385 42.3114 55.0518 42.6727 54.64L70.6727 22.64C71.3193 21.8373 71.631 20.816 71.5429 19.7891C71.4549 18.7622 70.9738 17.8089 70.2001 17.128C69.4263 16.4471 68.4196 16.0912 67.3898 16.1344C66.3601 16.1776 65.3867 16.6166 64.6727 17.36L39.7927 46.16L30.6327 37.16Z" fill="url(#paint0_linear_175_1173)"/>
<path d="M75.7922 36C74.7314 36 73.7139 36.4214 72.9638 37.1716C72.2136 37.9217 71.7922 38.9391 71.7922 40C71.7922 48.4869 68.4208 56.6263 62.4196 62.6274C56.4185 68.6286 48.2791 72 39.7922 72C33.4726 71.9971 27.2953 70.1231 22.0393 66.6142C16.7833 63.1052 12.6839 58.1186 10.2581 52.2831C7.83237 46.4475 7.1888 40.0244 8.40858 33.8236C9.62836 27.6228 12.6569 21.9219 17.1122 17.44C20.075 14.4375 23.6069 12.0562 27.5013 10.4353C31.3956 8.81434 35.5741 7.98644 39.7922 8C42.35 8.01601 44.8984 8.31109 47.3922 8.88C47.9141 9.04142 48.4635 9.09424 49.0065 9.0352C49.5496 8.97616 50.0748 8.80651 50.5498 8.53671C51.0248 8.26692 51.4395 7.90269 51.7683 7.46649C52.0971 7.03029 52.3331 6.53136 52.4618 6.00045C52.5904 5.46955 52.6089 4.91793 52.5162 4.3796C52.4234 3.84127 52.2214 3.32764 51.9226 2.87037C51.6237 2.4131 51.2344 2.02188 50.7786 1.72085C50.3228 1.41981 49.8101 1.21532 49.2722 1.12C46.1648 0.388971 42.9844 0.0132297 39.7922 0C31.8896 0.0410541 24.1762 2.42208 17.6254 6.84261C11.0746 11.2631 5.98011 17.525 2.9847 24.8381C-0.01071 32.1512 -0.772745 40.1877 0.79476 47.9334C2.36227 55.6792 6.18906 62.787 11.7922 68.36C19.219 75.7901 29.2868 79.9755 39.7922 80C50.4009 80 60.575 75.7857 68.0765 68.2843C75.5779 60.7828 79.7922 50.6087 79.7922 40C79.7922 38.9391 79.3708 37.9217 78.6207 37.1716C77.8705 36.4214 76.8531 36 75.7922 36Z" fill="url(#paint1_linear_175_1173)"/>
<defs>
<linearGradient id="paint0_linear_175_1173" x1="66.9632" y1="56" x2="27.1266" y2="51.374" gradientUnits="userSpaceOnUse">
<stop stop-color="#9166F0"/>
<stop offset="1" stop-color="#210C51"/>
</linearGradient>
<linearGradient id="paint1_linear_175_1173" x1="72.1199" y1="80" x2="5.32157" y2="73.5444" gradientUnits="userSpaceOnUse">
<stop stop-color="#9166F0"/>
<stop offset="1" stop-color="#210C51"/>
</linearGradient>
</defs>
</svg>
