<svg width="27" height="31" viewBox="0 0 27 31" fill="none" xmlns="http://www.w3.org/2000/svg">
<path d="M26.6021 15.254C26.6021 15.4422 26.5534 15.6272 26.4607 15.7908C26.368 15.9543 26.2346 16.0907 26.0735 16.1865L2.39169 30.2673C2.22821 30.3645 2.04206 30.4166 1.85213 30.418C1.66221 30.4195 1.47528 30.3704 1.31031 30.2757C1.14535 30.181 1.00823 30.0441 0.912861 29.8788C0.817498 29.7135 0.76729 29.5258 0.767334 29.3347V1.17323C0.76729 0.982122 0.817498 0.794404 0.912861 0.629132C1.00823 0.46386 1.14535 0.326919 1.31031 0.232209C1.47528 0.137499 1.66221 0.0883935 1.85213 0.0898764C2.04206 0.0913593 2.22821 0.143378 2.39169 0.240652L26.0735 14.3214C26.2346 14.4172 26.368 14.5536 26.4607 14.7171C26.5534 14.8807 26.6021 15.0657 26.6021 15.254Z" fill="url(#paint0_linear_175_28)"/>
<defs>
<linearGradient id="paint0_linear_175_28" x1="-7.33805" y1="1.69858" x2="27.6905" y2="35.6335" gradientUnits="userSpaceOnUse">
<stop stop-color="#E229DB"/>
<stop offset="1" stop-color="#2E3192"/>
</linearGradient>
</defs>
</svg>
